<svg width="1972" height="1394" viewBox="0 0 1972 1394" fill="none" xmlns="http://www.w3.org/2000/svg">
<path d="M434.68 383.82C242.06 383.82 85.9099 540 85.9099 732.59C85.9099 925.18 242.06 1081.36 434.68 1081.36C627.3 1081.36 783.45 925.21 783.45 732.59C783.45 539.97 627.3 383.82 434.68 383.82ZM212.76 880.24L334.41 669.55L511.05 672.63L441.87 552.8L414.53 600.07H374.46L441.87 483.42L571.75 708.42L354.24 704.63L272.85 845.63H650.35L672.91 880.31L212.76 880.24Z" fill="black"/>
<path d="M993.63 500C968.22 500 942.82 520 942.82 549.79C942.82 579.58 968.22 599.59 993.63 599.59C1009.55 599.59 1023.78 594.17 1037.33 581.3V621.3C1025.81 631.46 1008.87 638.91 986.85 638.91C936.04 638.91 898.78 598.26 898.78 549.82C898.78 501.73 936.04 460.74 986.85 460.74C1008.85 460.74 1025.85 468.19 1037.33 478.35V518C1023.78 505.11 1009.55 500 993.63 500Z" fill="black"/>
<path d="M1094.21 549.82C1094.21 500.71 1132.49 460.74 1186.35 460.74C1239.87 460.74 1277.81 500.74 1277.81 549.82C1277.81 598.9 1239.87 638.91 1186.35 638.91C1132.49 638.91 1094.21 598.94 1094.21 549.82ZM1236.15 549.82C1236.15 522.73 1215.48 500.03 1186.35 500.03C1156.88 500.03 1135.88 522.73 1135.88 549.82C1135.88 576.91 1156.88 599.62 1186.35 599.62C1215.48 599.62 1236.15 576.92 1236.15 549.82Z" fill="black"/>
<path d="M1416.33 460.74C1445.8 460.74 1468.84 476.32 1477.64 495.97V381.47H1519.64V635.53H1480L1477.63 603.68C1468.83 623.33 1445.79 638.91 1416.32 638.91C1367.21 638.91 1331.32 598.91 1331.32 549.82C1331.32 500.73 1367.22 460.74 1416.33 460.74ZM1423.45 599.62C1452.58 599.62 1473.24 576.92 1473.24 549.82C1473.24 522.72 1452.58 500 1423.45 500C1393.98 500 1372.97 522.7 1372.97 549.79C1372.97 576.88 1394 599.62 1423.45 599.62Z" fill="black"/>
<path d="M1757.08 562.7H1627.34C1628.34 583.7 1644.28 601.99 1674.43 601.99C1696.1 601.99 1709.99 590.47 1716.77 578.62L1753.35 582.68C1748.27 606.05 1721.51 638.91 1674.09 638.91C1621.25 638.91 1585.68 598.91 1585.68 548.81C1585.68 501.05 1619.55 460.74 1671.38 460.74C1724.22 460.74 1757.08 502.74 1757.08 551.86V562.7ZM1627.34 533.9H1715.41C1714.06 514.9 1697.41 497.66 1671.41 497.66C1646 497.66 1628.36 514.26 1627.34 533.9Z" fill="black"/>
<path d="M983.81 743C1013.28 743 1036.31 758.59 1045.12 778.23L1047.49 746.39H1087.12V917.79H1047.49L1045.12 885.95C1036.31 905.59 1013.28 921.18 983.81 921.18C934.69 921.18 898.81 881.18 898.81 832.09C898.81 783 934.69 743 983.81 743ZM990.92 881.89C1020.05 881.89 1040.71 859.19 1040.71 832.09C1040.71 804.99 1020.05 782.3 990.92 782.3C961.45 782.3 940.45 804.99 940.45 832.09C940.45 859.19 961.45 881.88 990.92 881.88V881.89Z" fill="black"/>
<path d="M1239.87 782.29C1214.46 782.29 1189.06 802.29 1189.06 832.08C1189.06 861.87 1214.46 881.88 1239.87 881.88C1255.79 881.88 1270.02 876.45 1283.56 863.58V903.58C1272.05 913.75 1255.11 921.2 1233.1 921.2C1182.29 921.2 1145.02 880.55 1145.02 832.11C1145.02 784.01 1182.29 743.02 1233.1 743.02C1255.1 743.02 1272.1 750.47 1283.56 760.64V800.27C1270 787.37 1255.79 782.29 1239.87 782.29Z" fill="black"/>
<path d="M1511.85 845H1382.12C1383.12 866 1399.05 884.3 1429.2 884.3C1450.88 884.3 1464.77 872.78 1471.54 860.92L1508.12 864.99C1503.04 888.36 1476.28 921.22 1428.86 921.22C1376.02 921.22 1340.45 881.22 1340.45 831.11C1340.45 783.35 1374.32 743.04 1426.15 743.04C1478.99 743.04 1511.85 785.04 1511.85 834.16V845ZM1382.12 816.21H1470.19C1468.83 797.21 1452.19 779.96 1426.19 779.96C1400.75 779.91 1383.13 796.51 1382.12 816.16V816.21Z" fill="black"/>
<path d="M1825.54 362.22V338.46H1816.66V335.28H1838V338.46H1829.09V362.22H1825.54Z" fill="black"/>
<path d="M1841.56 362.22V335.28H1846.93L1853.3 354.35C1853.89 356.13 1854.32 357.463 1854.59 358.35C1854.89 357.35 1855.37 355.93 1856.02 354.03L1862.47 335.29H1867.27V362.23H1863.83V339.67L1856 362.22H1852.79L1845 339.28V362.22H1841.56Z" fill="black"/>
<path d="M1844.1 390.84C1835.89 390.84 1827.87 388.406 1821.05 383.847C1814.23 379.287 1808.91 372.807 1805.77 365.225C1802.63 357.643 1801.81 349.3 1803.41 341.252C1805.01 333.203 1808.96 325.811 1814.77 320.008C1820.57 314.206 1827.96 310.256 1836.01 308.656C1844.06 307.056 1852.4 307.879 1859.98 311.021C1867.57 314.163 1874.04 319.482 1878.6 326.307C1883.16 333.131 1885.59 341.153 1885.59 349.36C1885.58 360.359 1881.2 370.903 1873.42 378.68C1865.64 386.456 1855.1 390.829 1844.1 390.84ZM1844.1 310.54C1836.42 310.54 1828.92 312.817 1822.53 317.082C1816.15 321.348 1811.17 327.411 1808.23 334.504C1805.3 341.598 1804.53 349.403 1806.03 356.933C1807.52 364.464 1811.22 371.381 1816.65 376.81C1822.08 382.239 1829 385.936 1836.53 387.434C1844.06 388.932 1851.86 388.163 1858.96 385.225C1866.05 382.287 1872.11 377.311 1876.38 370.927C1880.64 364.543 1882.92 357.038 1882.92 349.36C1882.91 339.067 1878.82 329.2 1871.54 321.922C1864.26 314.644 1854.39 310.55 1844.1 310.54Z" fill="black"/>
<path d="M1761.8 984.88H903.4V989.58H1761.8V984.88Z" fill="black"/>
<path d="M1585.49 921.17C1596.34 921.17 1605.14 912.373 1605.14 901.52C1605.14 890.668 1596.34 881.87 1585.49 881.87C1574.64 881.87 1565.84 890.668 1565.84 901.52C1565.84 912.373 1574.64 921.17 1585.49 921.17Z" fill="black"/>
<path d="M903.241 1061.2V1021.72H911.213V1061.2H903.241ZM927.723 1061.2V1028.4H916.007V1021.72H947.385V1028.4H935.696V1061.2H927.723ZM965.888 1048.35L973.645 1047.6C974.112 1050.2 975.055 1052.11 976.473 1053.34C977.91 1054.56 979.84 1055.17 982.264 1055.17C984.832 1055.17 986.762 1054.63 988.055 1053.55C989.365 1052.46 990.021 1051.18 990.021 1049.73C990.021 1048.79 989.742 1048 989.186 1047.36C988.647 1046.69 987.695 1046.12 986.331 1045.63C985.397 1045.31 983.269 1044.73 979.948 1043.91C975.674 1042.85 972.675 1041.55 970.952 1040C968.528 1037.83 967.316 1035.18 967.316 1032.06C967.316 1030.05 967.881 1028.17 969.013 1026.43C970.162 1024.67 971.805 1023.33 973.941 1022.42C976.096 1021.5 978.691 1021.04 981.725 1021.04C986.681 1021.04 990.407 1022.13 992.903 1024.3C995.416 1026.47 996.736 1029.37 996.862 1033L988.89 1033.35C988.548 1031.32 987.812 1029.87 986.681 1028.99C985.568 1028.09 983.889 1027.64 981.644 1027.64C979.328 1027.64 977.515 1028.12 976.204 1029.07C975.36 1029.68 974.938 1030.5 974.938 1031.52C974.938 1032.45 975.333 1033.25 976.123 1033.92C977.128 1034.76 979.57 1035.64 983.449 1036.56C987.327 1037.47 990.191 1038.42 992.041 1039.41C993.908 1040.38 995.363 1041.72 996.404 1043.42C997.463 1045.11 997.993 1047.2 997.993 1049.7C997.993 1051.96 997.365 1054.08 996.108 1056.06C994.851 1058.03 993.073 1059.5 990.775 1060.47C988.477 1061.42 985.613 1061.9 982.183 1061.9C977.191 1061.9 973.358 1060.75 970.682 1058.45C968.007 1056.14 966.409 1052.77 965.888 1048.35ZM1003.08 1041.7C1003.08 1037.68 1003.69 1034.3 1004.89 1031.57C1005.79 1029.56 1007.01 1027.76 1008.55 1026.16C1010.11 1024.56 1011.82 1023.38 1013.67 1022.6C1016.13 1021.56 1018.97 1021.04 1022.18 1021.04C1028 1021.04 1032.65 1022.85 1036.13 1026.46C1039.63 1030.06 1041.38 1035.08 1041.38 1041.51C1041.38 1047.89 1039.65 1052.88 1036.18 1056.49C1032.72 1060.08 1028.09 1061.87 1022.29 1061.87C1016.42 1061.87 1011.75 1060.09 1008.28 1056.51C1004.82 1052.92 1003.08 1047.98 1003.08 1041.7ZM1011.3 1041.43C1011.3 1045.9 1012.33 1049.3 1014.4 1051.61C1016.46 1053.91 1019.08 1055.06 1022.26 1055.06C1025.44 1055.06 1028.04 1053.92 1030.07 1051.64C1032.12 1049.34 1033.14 1045.9 1033.14 1041.32C1033.14 1036.8 1032.14 1033.42 1030.15 1031.2C1028.18 1028.97 1025.55 1027.86 1022.26 1027.86C1018.97 1027.86 1016.33 1028.99 1014.31 1031.25C1012.3 1033.49 1011.3 1036.89 1011.3 1041.43ZM1047.85 1061.2V1022.04H1055.82V1054.55H1075.64V1061.2H1047.85ZM1081.3 1021.72H1089.27V1043.1C1089.27 1046.49 1089.37 1048.69 1089.57 1049.7C1089.91 1051.32 1090.72 1052.62 1091.99 1053.6C1093.28 1054.57 1095.04 1055.06 1097.27 1055.06C1099.53 1055.06 1101.24 1054.6 1102.39 1053.69C1103.54 1052.75 1104.23 1051.61 1104.46 1050.27C1104.69 1048.92 1104.81 1046.68 1104.81 1043.56V1021.72H1112.78V1042.45C1112.78 1047.19 1112.57 1050.54 1112.14 1052.5C1111.71 1054.46 1110.91 1056.11 1109.74 1057.46C1108.59 1058.8 1107.05 1059.88 1105.11 1060.69C1103.17 1061.48 1100.64 1061.87 1097.51 1061.87C1093.74 1061.87 1090.88 1061.44 1088.92 1060.58C1086.98 1059.7 1085.45 1058.57 1084.32 1057.19C1083.18 1055.79 1082.44 1054.32 1082.08 1052.8C1081.56 1050.53 1081.3 1047.19 1081.3 1042.78V1021.72ZM1130.1 1061.2V1028.4H1118.39V1021.72H1149.76V1028.4H1138.07V1061.2H1130.1ZM1154.69 1061.2V1021.72H1162.67V1061.2H1154.69ZM1168.67 1041.7C1168.67 1037.68 1169.27 1034.3 1170.48 1031.57C1171.37 1029.56 1172.59 1027.76 1174.14 1026.16C1175.7 1024.56 1177.41 1023.38 1179.26 1022.6C1181.72 1021.56 1184.55 1021.04 1187.77 1021.04C1193.58 1021.04 1198.24 1022.85 1201.72 1026.46C1205.22 1030.06 1206.97 1035.08 1206.97 1041.51C1206.97 1047.89 1205.24 1052.88 1201.77 1056.49C1198.31 1060.08 1193.67 1061.87 1187.87 1061.87C1182 1061.87 1177.33 1060.09 1173.87 1056.51C1170.4 1052.92 1168.67 1047.98 1168.67 1041.7ZM1176.89 1041.43C1176.89 1045.9 1177.92 1049.3 1179.98 1051.61C1182.05 1053.91 1184.67 1055.06 1187.85 1055.06C1191.03 1055.06 1193.63 1053.92 1195.66 1051.64C1197.71 1049.34 1198.73 1045.9 1198.73 1041.32C1198.73 1036.8 1197.73 1033.42 1195.74 1031.2C1193.76 1028.97 1191.13 1027.86 1187.85 1027.86C1184.56 1027.86 1181.91 1028.99 1179.9 1031.25C1177.89 1033.49 1176.89 1036.89 1176.89 1041.43ZM1213.3 1061.2V1021.72H1221.06L1237.22 1048.08V1021.72H1244.62V1061.2H1236.62L1220.71 1035.45V1061.2H1213.3ZM1251.06 1048.35L1258.82 1047.6C1259.28 1050.2 1260.23 1052.11 1261.65 1053.34C1263.08 1054.56 1265.01 1055.17 1267.44 1055.17C1270 1055.17 1271.93 1054.63 1273.23 1053.55C1274.54 1052.46 1275.19 1051.18 1275.19 1049.73C1275.19 1048.79 1274.92 1048 1274.36 1047.36C1273.82 1046.69 1272.87 1046.12 1271.5 1045.63C1270.57 1045.31 1268.44 1044.73 1265.12 1043.91C1260.85 1042.85 1257.85 1041.55 1256.12 1040C1253.7 1037.83 1252.49 1035.18 1252.49 1032.06C1252.49 1030.05 1253.05 1028.17 1254.19 1026.43C1255.33 1024.67 1256.98 1023.33 1259.11 1022.42C1261.27 1021.5 1263.86 1021.04 1266.9 1021.04C1271.85 1021.04 1275.58 1022.13 1278.08 1024.3C1280.59 1026.47 1281.91 1029.37 1282.03 1033L1274.06 1033.35C1273.72 1031.32 1272.99 1029.87 1271.85 1028.99C1270.74 1028.09 1269.06 1027.64 1266.82 1027.64C1264.5 1027.64 1262.69 1028.12 1261.38 1029.07C1260.53 1029.68 1260.11 1030.5 1260.11 1031.52C1260.11 1032.45 1260.51 1033.25 1261.3 1033.92C1262.3 1034.76 1264.74 1035.64 1268.62 1036.56C1272.5 1037.47 1275.36 1038.42 1277.21 1039.41C1279.08 1040.38 1280.54 1041.72 1281.58 1043.42C1282.64 1045.11 1283.17 1047.2 1283.17 1049.7C1283.17 1051.96 1282.54 1054.08 1281.28 1056.06C1280.02 1058.03 1278.25 1059.5 1275.95 1060.47C1273.65 1061.42 1270.79 1061.9 1267.36 1061.9C1262.36 1061.9 1258.53 1060.75 1255.86 1058.45C1253.18 1056.14 1251.58 1052.77 1251.06 1048.35ZM1305.44 1061.2V1022.04H1313.41V1054.55H1333.24V1061.2H1305.44ZM1339.16 1061.2V1022.04H1347.13V1054.55H1366.96V1061.2H1339.16ZM1372.67 1061.2V1021.72H1385.46C1390.31 1021.72 1393.47 1021.91 1394.94 1022.31C1397.2 1022.9 1399.1 1024.19 1400.62 1026.19C1402.15 1028.16 1402.91 1030.72 1402.91 1033.86C1402.91 1036.29 1402.47 1038.32 1401.59 1039.98C1400.71 1041.63 1399.59 1042.93 1398.23 1043.88C1396.88 1044.82 1395.51 1045.44 1394.11 1045.74C1392.2 1046.12 1389.45 1046.31 1385.84 1046.31H1380.64V1061.2H1372.67ZM1380.64 1028.4V1039.6H1385C1388.14 1039.6 1390.24 1039.39 1391.3 1038.98C1392.36 1038.57 1393.19 1037.92 1393.78 1037.04C1394.39 1036.16 1394.7 1035.14 1394.7 1033.97C1394.7 1032.53 1394.28 1031.35 1393.43 1030.42C1392.59 1029.48 1391.52 1028.9 1390.23 1028.66C1389.28 1028.48 1387.36 1028.4 1384.49 1028.4H1380.64Z" fill="black"/>
</svg>
